<svg xmlns="http://www.w3.org/2000/svg" width="27.6" height="24" viewBox="0 0 27.6 24">
  <g id="noun-cart-1570216" transform="translate(-92.399 -56)">
    <path id="Path_2" data-name="Path 2" d="M93.3,56a.9.9,0,1,0,0,1.8h3.59c1.49,3.689,2.957,7.385,4.434,11.081l-1.359,3.272A.9.9,0,0,0,100.8,73.4h15a.9.9,0,1,0,0-1.8h-13.65l.778-1.856,14.447-1.153a.926.926,0,0,0,.806-.694l1.8-7.8A.942.942,0,0,0,119.1,59H99.308l-.975-2.437A.923.923,0,0,0,97.5,56Zm6.731,4.8h17.934l-1.4,6.056L102.89,67.944ZM103.8,74a3,3,0,1,0,3,3A3.014,3.014,0,0,0,103.8,74Zm9,0a3,3,0,1,0,3,3A3.014,3.014,0,0,0,112.8,74Zm-9,1.8a1.2,1.2,0,1,1-1.2,1.2A1.186,1.186,0,0,1,103.8,75.8Zm9,0a1.2,1.2,0,1,1-1.2,1.2A1.187,1.187,0,0,1,112.8,75.8Z" fill="#eaeaea"/>
  </g>
</svg>
