<svg xmlns="http://www.w3.org/2000/svg" width="24" height="24" viewBox="0 0 24 24">
  <g id="noun-language-4113652" transform="translate(-96.483 -28.482)">
    <path id="Path_41" data-name="Path 41" d="M120.358,41.205a2.122,2.122,0,0,0,.016-1.391,11.9,11.9,0,0,0-23.782,0,2.122,2.122,0,0,0,.016,1.391A11.92,11.92,0,0,0,107.5,52.25a2.162,2.162,0,0,0,1.948,0,11.92,11.92,0,0,0,10.909-11.045Zm-22.786-.817c0-.127.005-.253.01-.379.5-1.183,2.842-2.371,6.3-2.951a32.019,32.019,0,0,0,0,6.848c-3.444-.577-5.777-1.756-6.3-2.934-.01-.193-.016-.388-.016-.585Zm7.123.094a28.929,28.929,0,0,1,.215-3.573,29.744,29.744,0,0,1,7.147,0,28.933,28.933,0,0,1,.215,3.573c0,.538-.014,1.078-.042,1.606a.5.5,0,0,0,.993.052c.029-.545.043-1.1.043-1.659a31.254,31.254,0,0,0-.184-3.424c3.461.579,5.8,1.767,6.3,2.951,0,.126.01.252.01.379q0,.294-.016.585c-.726,1.647-5,3.3-10.9,3.3a28.934,28.934,0,0,1-3.573-.215,28.974,28.974,0,0,1-.216-3.573Zm3.789-11.006c1.328,0,2.767,2.483,3.424,6.407a32.015,32.015,0,0,0-6.848,0C105.717,31.959,107.155,29.476,108.483,29.476Zm10.7,8.772a13.706,13.706,0,0,0-6.236-2.23,13.444,13.444,0,0,0-2.3-6.326,10.943,10.943,0,0,1,8.539,8.557Zm-12.861-8.557a13.444,13.444,0,0,0-2.3,6.326,13.706,13.706,0,0,0-6.236,2.23,10.943,10.943,0,0,1,8.539-8.557ZM97.833,42.755a13.854,13.854,0,0,0,6.186,2.19,14.111,14.111,0,0,0,2.123,6.1,10.943,10.943,0,0,1-8.309-8.289Zm12.973,8.293a11.073,11.073,0,0,0,1.611-3.626.5.5,0,1,0-.959-.263c-.58,2.116-1.416,3.593-2.288,4.116-.228.014-.457.024-.688.024s-.459-.01-.686-.024c-1.111-.678-2.194-2.941-2.739-6.194a31.288,31.288,0,0,0,3.424.184c4.749,0,8.685-.991,10.65-2.509a10.942,10.942,0,0,1-8.326,8.293Z" fill="#eaeaea"/>
  </g>
</svg>
