<svg xmlns="http://www.w3.org/2000/svg" xmlns:xlink="http://www.w3.org/1999/xlink" width="112" height="58" viewBox="0 0 112 58">
  <defs>
    <linearGradient id="linear-gradient" x1="0.5" x2="0.5" y2="1" gradientUnits="objectBoundingBox">
      <stop offset="0" stop-color="#ff002d"/>
      <stop offset="1" stop-color="#960000"/>
    </linearGradient>
  </defs>
  <g id="Group_3" data-name="Group 3" transform="translate(-61 -76)">
    <text id="liam" transform="translate(132 108)" fill="#eaeaea" font-size="21" font-family="Rubik-Regular, Rubik"><tspan x="0" y="0">liam</tspan></text>
    <g id="Group_2" data-name="Group 2" transform="translate(0 -1)">
      <g id="Group_1" data-name="Group 1">
        <rect id="Rectangle_7" data-name="Rectangle 7" width="16" height="16" rx="5" transform="translate(82 98)" fill="url(#linear-gradient)"/>
        <path id="Subtraction_1" data-name="Subtraction 1" d="M17,30H5a5.006,5.006,0,0,1-5-5V13A5.006,5.006,0,0,1,5,8H16.071A7.026,7.026,0,0,0,22,13.929V25A5.005,5.005,0,0,1,17,30Z" transform="translate(79 82)" fill="url(#linear-gradient)"/>
      </g>
      <g id="Ellipse_2" data-name="Ellipse 2" transform="translate(97 82)" fill="none" stroke="#ffdbdb" stroke-width="2">
        <circle cx="6" cy="6" r="6" stroke="none"/>
        <circle cx="6" cy="6" r="5" fill="none"/>
      </g>
    </g>
  </g>
</svg>
