<svg xmlns="http://www.w3.org/2000/svg" width="26.867" height="21.349" viewBox="0 0 26.867 21.349">
  <g id="looksrare-seeklogo.com" transform="translate(-651.3 -263.9)">
    <path id="Path_51" data-name="Path 51" d="M659.36,263.9l-8.06,8,13.433,13.347L678.167,271.9l-8.06-8Z" fill="#2de370"/>
    <path id="Path_52" data-name="Path 52" d="M671.144,276.033a8.09,8.09,0,0,1,11.469,0l2.744,2.744-2.744,2.744a8.09,8.09,0,0,1-11.469,0l-2.744-2.744Z" transform="translate(-12.16 -6.933)"/>
    <path id="Path_53" data-name="Path 53" d="M689.551,286.929a3.266,3.266,0,1,1,3.351-3.264A3.317,3.317,0,0,1,689.551,286.929Z" transform="translate(-24.818 -11.733)" fill="#fff" fill-rule="evenodd"/>
    <path id="Path_54" data-name="Path 54" d="M694.315,289.331a1.416,1.416,0,1,1,1.416-1.416A1.437,1.437,0,0,1,694.315,289.331Z" transform="translate(-29.582 -16.071)"/>
  </g>
</svg>
