<svg xmlns="http://www.w3.org/2000/svg" width="12.622" height="15.328" viewBox="0 0 12.622 15.328">
  <g id="noun-notification-4625957" transform="translate(-173.622 -61.601)">
    <path id="Path_43" data-name="Path 43" d="M185.744,74.926a.523.523,0,0,0,.4-.2.488.488,0,0,0,.08-.441l-1.182-4.048V67.613a5.128,5.128,0,0,0-4.609-5.089V62.1a.5.5,0,1,0-1,0v.421a5.128,5.128,0,0,0-4.609,5.089v2.625l-1.182,4.048a.488.488,0,0,0,.08.441.523.523,0,0,0,.4.2Zm-5.811-10.52a3.121,3.121,0,0,1,3.106,3.106.5.5,0,1,1-1,0,2.1,2.1,0,0,0-2.1-2.1.5.5,0,0,1,0-1Z" transform="translate(0)" fill="#fff"/>
    <path id="Path_44" data-name="Path 44" d="M303.207,453.6H299.6a1.9,1.9,0,0,0,3.607,0Z" transform="translate(-121.47 -377.973)" fill="#fff"/>
  </g>
</svg>
