<svg id="OpenSea-Full-Logo_dark_" data-name="OpenSea-Full-Logo (dark)" xmlns="http://www.w3.org/2000/svg" width="26" height="26" viewBox="0 0 26 26">
  <path id="Path_45" data-name="Path 45" d="M26,13A13,13,0,1,1,13,0,13,13,0,0,1,26,13Z" fill="#2081e2"/>
  <path id="Path_46" data-name="Path 46" d="M24.615,36.219l.056-.088,3.382-5.29a.116.116,0,0,1,.2.015,7.205,7.205,0,0,1,.824,3.821,5.973,5.973,0,0,1-.665,1.454c-.039.073-.081.146-.127.215a.115.115,0,0,1-.1.051H24.714A.115.115,0,0,1,24.615,36.219Z" transform="translate(-18.201 -22.783)" fill="#fff"/>
  <path id="Path_47" data-name="Path 47" d="M37.028,29.22v.837a.12.12,0,0,1-.072.11,4.164,4.164,0,0,0-1.531,1.042c-.951,1.324-1.678,3.216-3.3,3.216H25.347A4.354,4.354,0,0,1,21,30.063v-.077a.116.116,0,0,1,.116-.116h3.777a.129.129,0,0,1,.123.143,1.289,1.289,0,0,0,.135.725,1.329,1.329,0,0,0,1.191.74h1.87v-1.46H26.364a.119.119,0,0,1-.1-.187c.02-.031.043-.063.067-.1.175-.248.425-.634.673-1.074a8.41,8.41,0,0,0,.466-.931c.027-.057.048-.116.069-.174.036-.1.073-.2.1-.291s.048-.164.069-.243a3.762,3.762,0,0,0,.089-.852c0-.116-.005-.238-.016-.354s-.021-.254-.037-.381-.031-.223-.052-.339c-.027-.17-.064-.338-.107-.508l-.015-.064c-.032-.116-.059-.227-.1-.343-.106-.365-.227-.72-.355-1.052-.047-.132-.1-.259-.154-.386-.079-.191-.159-.365-.232-.529-.037-.075-.069-.143-.1-.212s-.073-.158-.111-.232c-.027-.057-.057-.111-.079-.164l-.228-.422a.074.074,0,0,1,.084-.108l1.429.387h.009l.188.052.207.059.076.021v-.849A.738.738,0,0,1,28.947,20a.725.725,0,0,1,.52.218.747.747,0,0,1,.215.525V22l.152.043a.122.122,0,0,1,.035.017l.159.12c.053.043.111.095.18.148.138.111.3.254.482.418.048.041.095.084.138.127.232.216.493.47.741.751.069.079.138.159.207.243s.143.17.207.254c.084.112.175.228.254.35.037.057.08.116.116.174.1.154.191.313.276.471.036.073.073.154.106.232a3.4,3.4,0,0,1,.218.645.806.806,0,0,1,.031.143v.011a1.223,1.223,0,0,1,.027.2,2.158,2.158,0,0,1-.037.666,2.429,2.429,0,0,1-.079.279c-.032.091-.064.186-.106.275a3.73,3.73,0,0,1-.287.545c-.036.064-.079.132-.122.2s-.095.132-.138.2c-.059.08-.122.164-.186.239a2.537,2.537,0,0,1-.18.227c-.089.106-.175.206-.264.3-.053.063-.111.127-.17.184s-.116.122-.17.175c-.089.089-.164.159-.227.216l-.147.135a.12.12,0,0,1-.079.029H29.682v1.46h1.432a1.339,1.339,0,0,0,.871-.322,10.445,10.445,0,0,0,.886-.871.111.111,0,0,1,.055-.033l3.955-1.143A.117.117,0,0,1,37.028,29.22Z" transform="translate(-15.54 -14.8)" fill="#fff"/>
</svg>
