<svg xmlns="http://www.w3.org/2000/svg" width="26" height="26" viewBox="0 0 26 26">
  <g id="rarible-seeklogo.com" transform="translate(0)">
    <rect id="Rectangle_22" data-name="Rectangle 22" width="26" height="26" rx="8" transform="translate(0)" fill="#feda03"/>
    <path id="Path_55" data-name="Path 55" d="M21.51,17.385a1.969,1.969,0,0,0,1.548-2.057c0-2.051-1.741-2.528-3.972-2.528H10.2v9.234h3.74V18.9h4.437c.684,0,1.083.271,1.083.941v2.192H23.2V19.726A2.292,2.292,0,0,0,21.51,17.385Zm-3.069-.974h-4.5v-.9h4.5c.49,0,.787.064.787.451S18.931,16.411,18.441,16.411Z" transform="translate(-3.57 -4.48)"/>
  </g>
</svg>
